Coordinates
version=1
nRows=12
nColumns=34
inDegrees=yes

Units are S.I. units (second, meters, Newtons, ...)
If the header above contains a line with 'inDegrees', this indicates whether rotational values are in degrees (yes) or radians (no).

endheader
time	pelvis_tilt	pelvis_list	pelvis_rotation	pelvis_tx	pelvis_ty	pelvis_tz	hip_flexion_r	hip_adduction_r	hip_rotation_r	knee_angle_r	ankle_angle_r	subtalar_angle_r	mtp_angle_r	hip_flexion_l	hip_adduction_l	hip_rotation_l	knee_angle_l	ankle_angle_l	subtalar_angle_l	mtp_angle_l	lumbar_extension	lumbar_bending	lumbar_rotation	arm_flex_r	arm_add_r	arm_rot_r	elbow_flex_r	pro_sup_r	arm_flex_l	arm_add_l	arm_rot_l	elbow_flex_l	pro_sup_l
      1.45000000	    -14.50030802	     -0.81247471	      0.79053790	     -0.10965229	      1.20665647	     -0.08488969	     28.65446191	     -1.91122777	     -2.83144700	     27.34844513	     19.66638674	     -3.66025631	      0.00000000	     31.94150023	     -4.99879002	     -3.37112433	     32.01242689	     16.86823619	     -8.76871366	      0.00000000	    -18.59647761	      1.68560599	     -1.71709661	     -6.97667001	    -12.72519558	     21.22605371	     32.46415746	     69.53246364	    -11.37673265	    -11.22740058	     23.05586305	     31.03056627	     64.81263467
      1.46666670	    -15.25765660	     -0.79771016	      0.71454498	     -0.10973732	      1.19955305	     -0.08607311	     31.27017490	     -2.33673055	     -3.29133883	     30.34710828	     21.07911684	     -3.52368970	      0.00000000	     34.16123036	     -5.19336513	     -3.44126819	     34.88534884	     18.15273480	     -8.59963917	      0.00000000	    -19.33468322	      1.65155882	     -1.50104507	     -6.85493731	    -12.92492346	     21.63243176	     33.60237563	     69.21969581	    -11.38864262	    -11.29415902	     23.82789199	     32.32939020	     64.46860926
      1.48333330	    -16.04352774	     -0.82834919	      0.74351312	     -0.11221199	      1.18966106	     -0.08663406	     33.99153281	     -2.68213280	     -3.43421465	     33.63288726	     23.00399613	     -2.70958244	      0.00000000	     36.74958843	     -5.39464800	     -3.41705093	     38.02024286	     19.88235720	     -8.24793234	      0.00000000	    -20.43307302	      1.72100902	     -1.36865343	     -6.62819900	    -13.15803406	     21.83042250	     34.60321120	     68.92863181	    -11.50520837	    -11.19493249	     24.43649746	     33.23745404	     64.14483946
      1.50000000	    -16.56335389	     -0.71018712	      0.93809655	     -0.11591715	      1.18488291	     -0.08718318	     36.50393055	     -3.21494604	     -3.62675836	     36.82679235	     25.07707387	     -1.28350687	      0.00000000	     39.05226210	     -5.34469754	     -3.25012816	     41.14773003	     21.53146530	     -7.51418064	      0.00000000	    -21.86279047	      1.37520346	     -1.14983492	     -6.10431669	    -13.22090792	     22.07890173	     35.42063178	     68.69600705	    -11.16840518	    -10.75199514	     25.04377701	     33.32390166	     63.80639190
      1.51666670	    -17.12697186	     -0.77297775	      1.06292805	     -0.11726416	      1.17391824	     -0.08815910	     39.09764754	     -3.71949046	     -4.07264280	     40.29045031	     26.70611211	     -0.80230121	      0.00000000	     41.50235301	     -5.51988547	     -3.14058724	     44.47778315	     23.14058268	     -7.05392103	      0.00000000	    -23.28570688	      1.24701103	     -0.90417257	     -5.56443131	    -13.52233634	     22.31162281	     36.26300080	     68.52183653	    -10.60503674	    -10.24160821	     25.63892994	     32.91712802	     63.48405464
      1.53333330	    -17.55835931	     -0.92015846	      1.25452076	     -0.11642863	      1.17055372	     -0.08935950	     41.09871776	     -4.03326800	     -4.28952355	     43.28659820	     28.23136150	      0.02661833	      0.00000000	     43.50813823	     -5.63959609	     -2.75089370	     47.12860452	     24.53557650	     -6.56947552	      0.00000000	    -24.90630897	      1.25955809	     -0.16453310	     -4.97844534	    -14.01623666	     23.00650254	     37.27588706	     68.00951959	     -8.94213525	     -9.45999642	     27.76418249	     30.43079366	     62.36798670
      1.55000000	    -17.53548362	     -0.86865830	      1.31545173	     -0.11601325	      1.16166097	     -0.08948610	     42.62908858	     -4.29770715	     -4.11844106	     46.06238045	     30.35644732	      1.79870311	      0.00000000	     44.91462667	     -5.79056137	     -2.72372082	     49.66625631	     26.39439735	     -5.73264972	      0.00000000	    -26.88285207	      1.10758916	     -0.10870026	     -3.56526420	    -14.11343154	     22.80509983	     37.49971462	     67.83765848	     -7.57713350	     -9.44761286	     28.12862345	     30.16981283	     62.01719312
      1.56666670	    -17.80416615	     -0.76564795	      1.07841794	     -0.11620540	      1.14476488	     -0.08967192	     44.79356104	     -4.56707985	     -3.74118949	     49.91715751	     32.16724855	      2.14906048	      0.00000000	     46.83296717	     -6.00591047	     -2.63477472	     52.82358478	     28.35684799	     -4.98142408	      0.00000000	    -28.58022331	      0.91229337	      0.27099254	     -2.05059139	    -14.43663353	     22.80652144	     37.87638791	     67.72183184	     -5.96689440	     -9.33962784	     28.48956130	     29.67933368	     61.62714513
      1.58333330	    -17.84524146	     -0.68026669	      0.89722194	     -0.11260253	      1.13852074	     -0.08950395	     46.19243944	     -4.60717960	     -3.38916772	     53.01973875	     33.93954018	      2.59851993	      0.00000000	     48.10822293	     -6.24109550	     -2.52049308	     55.41560765	     30.17636980	     -4.29011727	      0.00000000	    -30.32650579	      0.74220228	      0.39695839	     -0.29167735	    -14.83579933	     22.73162154	     38.31972856	     67.63261487	     -3.87747518	     -9.33306183	     28.83648825	     29.00525535	     61.20723552
      1.60000000	    -17.76727350	     -0.55419822	      1.17757573	     -0.11247270	      1.12690203	     -0.08959720	     47.43438922	     -4.80823458	     -3.05755994	     55.77233140	     36.21411110	      3.50616059	      0.00000000	     49.58619049	     -6.22760031	     -2.35614026	     58.59201102	     32.02256498	     -4.14785962	      0.00000000	    -32.16912376	      0.49478912	      0.39615402	      1.64926489	    -15.09838712	     22.72259862	     38.77360071	     67.59605456	     -1.20266052	     -9.78226519	     29.10309711	     28.34512480	     60.79147464
      1.61666670	    -17.87089191	     -0.58328392	      1.21473125	     -0.11171954	      1.11636658	     -0.08889634	     48.89231518	     -4.75149958	     -2.66022010	     58.65494821	     37.65160982	      2.86964127	      0.00000000	     51.04445188	     -6.30904203	     -1.97656254	     61.24483802	     33.14889121	     -4.50783390	      0.00000000	    -34.00738549	      0.58575043	      0.45328569	      4.10296085	    -15.37457435	     22.46163360	     39.07712451	     67.58115412	      1.68473312	    -10.35471485	     28.88953649	     28.51082419	     60.69370105
      1.63333330	    -18.29560240	     -0.56137909	      1.29966086	     -0.10926910	      1.11478617	     -0.08688782	     50.11875488	     -4.71352737	     -2.39699664	     60.97042784	     38.54180846	      1.93631096	      0.00000000	     52.32239904	     -6.31602100	     -1.65585664	     62.78751204	     34.16301081	     -4.41083959	      0.00000000	    -35.35453144	      0.69385189	      0.62754092	      6.99118759	    -15.61439025	     22.19041420	     39.43239091	     67.59611723	      5.11036848	    -11.16018175	     28.65586914	     28.73306759	     60.55366304
